<svg xmlns="http://www.w3.org/2000/svg" xmlns:xlink="http://www.w3.org/1999/xlink" width="1440" height="500" version="1.1" viewBox="0 0 1440 500"><title>Hero revised</title><desc>Created with Sketch.</desc><defs><rect id="path-1" width="1440" height="500" x="0" y="0"/><path id="path-3" d="M0,37.6289062 C104.059896,12.5429688 191.432292,1.51500991e-15 262.117188,0 C368.144531,0 486.871094,49.359375 588.9375,49.359375 C691.003906,49.359375 843.800781,9.70703125 1057.55859,9.70703125 C1271.31641,9.70703125 1418.625,49.359375 1479.54297,49.359375 C1520.15495,49.359375 1579.5599,36.1419271 1657.75781,9.70703125 L1590.83594,433.429688 L82.6640625,433.429688 L34.875,193.375 L19.328125,49.359375 L0,37.6289062 Z"/></defs><g id="Designs" fill="none" fill-rule="evenodd" stroke="none" stroke-width="1"><g id="Home-Page-Sonobuoy" transform="translate(0.000000, -80.000000)"><g id="Hero-revised" transform="translate(0.000000, 80.000000)"><mask id="mask-2" fill="#fff"><use xlink:href="#path-1"/></mask><use id="Mask" fill="#78BE20" xlink:href="#path-1"/><g id="sonar" mask="url(#mask-2)"><g transform="translate(-103.000000, 66.000000)"><mask id="mask-4" fill="#fff"><use xlink:href="#path-3"/></mask><use id="Mask" fill="#0095D3" fill-rule="evenodd" stroke="none" xlink:href="#path-3"/><g id="Group-7" fill="none" fill-rule="evenodd" stroke="none" stroke-width="1" mask="url(#mask-4)"><g stroke="#00C1D5" transform="translate(1044.000000, -52.000000)"><polygon id="Stroke-1" stroke-width="21.083" points="364.536 266.051 295.416 210.106 212.406 241.992 198.515 329.824 267.636 385.77 350.645 353.884"/><polygon id="Stroke-2" stroke-width="17.477" points="419.028 245.119 304.535 152.447 167.032 205.266 144.023 350.757 258.516 443.428 396.019 390.609"/><polygon id="Stroke-3" stroke-width="11.252" points="472.779 224.472 313.529 95.575 122.275 169.04 90.272 371.404 249.522 500.301 440.776 426.835"/><polygon id="Stroke-4" stroke-width="6.325" points="523.302 205.064 321.983 42.116 80.206 134.99 39.749 390.811 241.068 553.758 482.844 460.885"/><polygon id="Stroke-5" stroke-width="2.984" points="562.443 190.029 328.533 .702 47.616 108.61 .608 405.846 234.518 595.174 515.436 487.264"/></g></g></g></g><g id="Group-4" mask="url(#mask-2)"><g transform="translate(1079.000000, 209.000000)"><polyline id="Line-2" fill="none" stroke="#1D428A" stroke-linecap="square" stroke-width="3" points="304.533 206.621 155.591 147.105 6.648 206.621"/><polyline id="Line-3" fill="none" stroke="#1D428A" stroke-linecap="square" stroke-width="3" points="66.887 246.5 155.336 148.73 245.531 249.199"/><polygon id="Path-6" fill="none" stroke="#1D428A" stroke-width="1" points="43.213 210.408 81.693 244.074 225.928 244.074 266.615 210.408 157.428 189.535"/><polyline id="Line-4" fill="none" stroke="#1D428A" stroke-linecap="square" stroke-width="6" points=".5 207.5 157.5 220.5 311.766 207.5"/><polyline id="Line-5" fill="none" stroke="#1D428A" stroke-linecap="square" stroke-width="6" points="60.5 250.5 155.208 221.132 250.664 250.5"/><path id="Line-6" fill="none" stroke="#1D428A" stroke-linecap="square" stroke-width="3" d="M155.5,105.765625 L155.5,220.5"/><rect id="Rectangle-4" width="23" height="31" x="144" y="107" fill="#1D428A" fill-rule="evenodd" stroke="none" rx="10"/><rect id="Rectangle-4-Copy-2" width="23" height="55" x="144" y="45" fill="#1D428A" fill-rule="evenodd" stroke="none" rx="2"/><rect id="Rectangle-4-Copy-4" width="23" height="20" x="144" y="103" fill="#1D428A" fill-rule="evenodd" stroke="none" rx="2"/><rect id="Rectangle-4-Copy-3" width="23" height="42" x="144" y="0" fill="#1D428A" fill-rule="evenodd" stroke="none" rx="2"/></g></g><path id="Path-3" stroke="#979797" mask="url(#mask-2)"/></g></g></g></svg>